<?xml version="1.0" encoding="utf-8"?>
<!-- Generator: Adobe Illustrator 16.0.0, SVG Export Plug-In . SVG Version: 6.00 Build 0)  -->
<!DOCTYPE svg PUBLIC "-//W3C//DTD SVG 1.1//EN" "http://www.w3.org/Graphics/SVG/1.1/DTD/svg11.dtd">
<svg version="1.1" id="Layer_1" xmlns="http://www.w3.org/2000/svg" xmlns:xlink="http://www.w3.org/1999/xlink" x="0px" y="0px"
	 width="850px" height="450px" viewBox="0 0 850 450" enable-background="new 0 0 850 450" xml:space="preserve">
<g>
	<path fill="#4C4C4C" d="M482.96,72.779c-1.157-1.962-1.854-5.341-4.548-5.241c-0.407,0.016-0.858,0.106-1.367,0.298
		c-1.189,0.45-2.472,1.35-3.523,2.423c-1.18,1.207-2.066,2.633-2.166,3.924c0.003,0.455,0.039,0.877,0.1,1.287
		c1.632,0.309,3.121,1.207,4.749,1.562c2.003,0.437,4.07,0.472,6.112,0.397c1.452-0.053,2.922-0.174,4.393-0.274
		C485.244,75.897,483.949,74.458,482.96,72.779z"/>
	<path fill="#4C4C4C" d="M477.273,86.149c0.78,0.566,1.647,1.055,2.635,1.444c2.033,0.805,4.222,1.195,6.432,1.527
		c-0.441-0.147-0.895-0.286-1.41-0.384C482.334,88.244,479.766,87.272,477.273,86.149z"/>
	<path fill="#4C4C4C" d="M504.338,85.481c1.104,0.963,2.704,1.3,3.37,2.672c0.429,0.882,0.695,1.913,0.922,2.79
		c0.92,3.586,1.755,8.189-0.271,11.481c-0.62,1.008-1.511,2.005-2.563,2.635c0.848,1.928,1.791,3.817,3.104,5.526
		c3.405,4.445,7.902,3.719,11.132,0.849c1.995-3.857,3.213-8.167,3.486-12.739C521.035,91.128,511.584,87.628,504.338,85.481z"/>
	<path fill="#303030" d="M472.248,78.559c-0.35-1.098-0.65-2.046-0.795-3.089c-0.341-0.062-0.685-0.112-1.036-0.115l-0.234,0.235
		c-1.482-0.12-2.354,1.38-2.463,2.687c-0.272,3.285,1.688,4.002,4.45,5.395c1.646,0.831,3.354,1.69,5.104,2.478
		C474.778,84.34,473.244,81.692,472.248,78.559z"/>
	<path fill="#303030" d="M508.355,102.424c2.027-3.292,1.192-7.896,0.272-11.481c-0.227-0.877-0.493-1.908-0.922-2.79
		c-0.666-1.372-2.271-1.708-3.37-2.672c-0.322-0.096-0.646-0.192-0.96-0.283c-4.012-1.159-7.943-2.568-11.604-4.594
		c-1.777-0.983-3.518-2.115-5.064-3.45c-1.471,0.1-2.938,0.221-4.393,0.274c-2.043,0.075-4.109,0.04-6.112-0.396
		c-1.628-0.355-3.117-1.253-4.749-1.562c0.145,1.043,0.445,1.991,0.795,3.089c0.996,3.134,2.53,5.782,5.025,7.59
		c2.49,1.123,5.061,2.095,7.654,2.588c0.518,0.098,0.969,0.237,1.41,0.384c4.021,0.604,8.111,1.017,11.472,3.368
		c4.491,3.143,5.957,7.968,7.981,12.571C506.848,104.43,507.736,103.433,508.355,102.424z"/>
</g>
<g>
	<path fill="#1F5268" d="M593.553,71.91c-1.158-1.962-1.855-5.341-4.548-5.241c-0.41,0.015-0.86,0.106-1.37,0.298
		c-1.188,0.45-2.472,1.35-3.521,2.423c-1.182,1.207-2.068,2.633-2.167,3.923c0.003,0.455,0.04,0.877,0.099,1.287
		c1.633,0.31,3.122,1.208,4.748,1.562c2.004,0.438,4.072,0.472,6.112,0.397c1.457-0.053,2.922-0.174,4.395-0.273
		C595.833,75.028,594.541,73.589,593.553,71.91z"/>
	<path fill="#4C4C4C" d="M587.866,85.28c0.778,0.566,1.646,1.056,2.632,1.445c2.036,0.805,4.223,1.195,6.434,1.527
		c-0.441-0.146-0.896-0.286-1.407-0.383C592.927,87.375,590.355,86.403,587.866,85.28z"/>
	<path fill="#1F5268" d="M614.93,84.613c1.104,0.963,2.701,1.3,3.369,2.672c0.428,0.881,0.695,1.913,0.922,2.79
		c0.919,3.586,1.754,8.189-0.273,11.481c-0.618,1.009-1.509,2.006-2.562,2.635c0.852,1.928,1.791,3.817,3.104,5.527
		c3.408,4.445,7.904,3.718,11.131,0.849c1.996-3.857,3.216-8.167,3.49-12.739C631.627,90.259,622.176,86.759,614.93,84.613z"/>
	<path fill="#303030" d="M582.838,77.69c-0.348-1.099-0.646-2.046-0.794-3.09c-0.341-0.064-0.682-0.112-1.037-0.115l-0.231,0.235
		c-1.483-0.12-2.354,1.38-2.465,2.687c-0.272,3.285,1.689,4.002,4.45,5.395c1.647,0.831,3.354,1.69,5.105,2.477
		C585.368,83.472,583.834,80.824,582.838,77.69z"/>
	<path fill="#0C2C35" d="M618.945,101.555c2.027-3.292,1.192-7.895,0.273-11.481c-0.227-0.877-0.494-1.908-0.922-2.79
		c-0.668-1.372-2.268-1.709-3.369-2.672c-0.322-0.096-0.646-0.192-0.96-0.283c-4.014-1.16-7.944-2.568-11.605-4.594
		c-1.776-0.983-3.517-2.115-5.063-3.449c-1.473,0.1-2.938,0.22-4.395,0.273c-2.04,0.075-4.108,0.04-6.112-0.397
		c-1.626-0.355-3.115-1.253-4.748-1.562c0.146,1.043,0.446,1.991,0.794,3.09c0.996,3.133,2.53,5.781,5.028,7.589
		c2.489,1.124,5.061,2.095,7.655,2.588c0.514,0.098,0.967,0.237,1.408,0.383c4.021,0.605,8.111,1.017,11.471,3.368
		c4.491,3.143,5.957,7.968,7.98,12.571C617.438,103.561,618.327,102.564,618.945,101.555z"/>
</g>
<g>
	<path fill="#FFFFFF" stroke="#494949" stroke-width="0.25" stroke-miterlimit="10" d="M379.843,73.059
		c-1.157-1.963-1.854-5.342-4.547-5.241c-0.409,0.015-0.859,0.106-1.368,0.298c-1.189,0.451-2.471,1.351-3.522,2.424
		c-1.181,1.207-2.068,2.633-2.167,3.923c0.002,0.455,0.04,0.877,0.099,1.286c1.631,0.31,3.122,1.207,4.749,1.562
		c2.003,0.438,4.07,0.472,6.111,0.397c1.456-0.053,2.922-0.174,4.392-0.274C382.126,76.177,380.832,74.738,379.843,73.059z"/>
	<path fill="#4C4C4C" d="M374.156,86.429c0.782,0.567,1.648,1.056,2.635,1.445c2.034,0.804,4.222,1.194,6.432,1.527
		c-0.442-0.147-0.896-0.286-1.409-0.384C379.216,88.523,376.648,87.552,374.156,86.429z"/>
	<path fill="#FFFFFF" stroke="#2CBFEB" stroke-width="0.25" stroke-miterlimit="10" d="M401.22,85.762
		c1.103,0.963,2.704,1.299,3.37,2.672c0.429,0.881,0.696,1.912,0.921,2.789c0.921,3.586,1.756,8.19-0.272,11.481
		c-0.621,1.009-1.51,2.006-2.563,2.636c0.849,1.928,1.791,3.817,3.102,5.526c3.406,4.444,7.903,3.718,11.132,0.849
		c1.996-3.856,3.214-8.167,3.49-12.739C417.918,91.408,408.466,87.908,401.22,85.762z"/>
	<path fill="#303030" d="M369.13,78.839c-0.35-1.099-0.648-2.046-0.794-3.09c-0.34-0.064-0.683-0.112-1.036-0.114l-0.234,0.234
		c-1.484-0.12-2.354,1.38-2.463,2.687c-0.273,3.285,1.688,4.002,4.449,5.396c1.648,0.83,3.356,1.689,5.104,2.477
		C371.661,84.621,370.126,81.972,369.13,78.839z"/>
	<path fill="#FFFFFF" stroke="#494949" stroke-width="0.25" stroke-miterlimit="10" d="M405.239,102.704
		c2.028-3.292,1.193-7.896,0.272-11.481c-0.225-0.877-0.493-1.908-0.921-2.789c-0.666-1.373-2.268-1.709-3.37-2.672
		c-0.321-0.096-0.646-0.192-0.959-0.283c-4.011-1.159-7.943-2.568-11.605-4.594c-1.778-0.983-3.518-2.115-5.066-3.449
		c-1.47,0.1-2.936,0.221-4.392,0.274c-2.041,0.075-4.108,0.04-6.111-0.397c-1.627-0.355-3.118-1.253-4.749-1.562
		c0.146,1.043,0.445,1.991,0.794,3.09c0.996,3.133,2.531,5.782,5.026,7.589c2.492,1.124,5.06,2.095,7.657,2.588
		c0.514,0.098,0.966,0.237,1.409,0.384c4.021,0.604,8.11,1.017,11.471,3.368c4.493,3.144,5.958,7.969,7.981,12.572
		C403.73,104.71,404.618,103.713,405.239,102.704z"/>
</g>
<g>
	<path fill="#4C4C4C" d="M469.146,108.621c-3.587-0.8-6.255-3.039-8.374-5.964l0.232-0.117c3.512,1.743,7.627,1.526,11.254,0.262
		c1.812-0.63,3.643-1.512,5.222-2.602c0.573-0.396,1.107-0.846,1.648-1.285c-1.804-0.557-3.495-1.258-4.928-2.079
		c-1.255-0.718-2.354-1.667-3.521-2.67c-1.511-1.304-3.07-2.65-5.025-3.481c-1.32-0.561-2.698-0.857-3.985-0.857
		c-0.495,0-0.966,0.057-1.422,0.142c-0.468,2.183-0.73,4.445-0.73,6.771c0,4.712,1.042,9.172,2.869,13.201
		c0.146,0.088,0.27,0.186,0.416,0.271c2.396,1.377,7.191,3.689,12.381,3.689c1.742,0,3.389-0.265,4.89-0.79
		c2.688-0.941,5.73-2.75,7.955-5.085c-2.438,0.749-5.146,0.963-7.66,0.993C476.626,109.062,472.837,109.444,469.146,108.621z"/>
	<path fill="#303030" d="M491.259,103.257c0.508-0.707,1.033-1.437,1.214-2.116l0.389-1.45l-1.475,0.289
		c-1.062,0.208-2.251,0.314-3.531,0.314c-2.821,0-5.909-0.509-8.725-1.378c-0.541,0.439-1.075,0.889-1.648,1.285
		c-1.579,1.09-3.409,1.971-5.222,2.602c-3.627,1.264-7.742,1.481-11.254-0.262l-0.232,0.117c2.119,2.926,4.788,5.165,8.372,5.964
		c3.69,0.824,7.479,0.441,11.224,0.398c2.517-0.03,5.224-0.245,7.66-0.993c1.029-1.084,1.9-2.271,2.446-3.558
		C490.604,104.17,490.938,103.706,491.259,103.257z"/>
</g>
<g>
	<path fill="#0C2C35" d="M601.979,99.11c-1.062,0.209-2.253,0.314-3.532,0.314c-2.819,0-5.91-0.509-8.724-1.379
		c-0.542,0.439-1.076,0.889-1.649,1.286c-1.579,1.09-3.409,1.971-5.22,2.602c-3.629,1.264-7.742,1.481-11.256-0.262l-0.232,0.117
		c2.121,2.926,4.789,5.164,8.374,5.964c3.688,0.824,7.479,0.442,11.223,0.398c2.517-0.029,5.221-0.245,7.66-0.993
		c1.029-1.083,1.9-2.271,2.445-3.557c0.129-0.298,0.461-0.763,0.782-1.211c0.512-0.707,1.033-1.437,1.218-2.117l0.384-1.45
		L601.979,99.11z"/>
	<path fill="#1F5268" d="M590.96,108.15c-3.742,0.043-7.532,0.426-11.223-0.398c-3.585-0.8-6.253-3.038-8.374-5.964l0.232-0.117
		c3.514,1.743,7.627,1.526,11.255,0.262c1.812-0.631,3.642-1.512,5.221-2.602c0.572-0.396,1.107-0.846,1.649-1.286
		c-1.806-0.556-3.498-1.258-4.93-2.078c-1.241-0.71-2.328-1.646-3.479-2.636c-0.011-0.012-0.023-0.022-0.038-0.034
		c-1.511-1.304-3.071-2.65-5.026-3.481c-0.971-0.412-1.974-0.678-2.943-0.792c-0.815,0.051-1.559,0.327-2.124,1.071
		c-0.248,0.326-0.464,0.73-0.638,1.246c-0.038,0.114-0.062,0.244-0.095,0.364c-0.158,1.114-0.265,2.243-0.297,3.393
		c-0.009,0.259-0.04,0.511-0.04,0.772c0,4.712,1.041,9.171,2.868,13.201c0.145,0.088,0.268,0.186,0.415,0.271
		c2.396,1.377,7.189,3.689,12.38,3.689c1.743,0,3.387-0.266,4.889-0.79c2.69-0.941,5.731-2.75,7.957-5.085
		C596.181,107.905,593.476,108.121,590.96,108.15z"/>
</g>
<g>
	<path fill="#FFFFFF" stroke="#494949" stroke-width="0.25" stroke-miterlimit="10" d="M388.269,100.259
		c-1.06,0.208-2.25,0.313-3.531,0.313c-2.821,0-5.91-0.508-8.725-1.378c-0.54,0.439-1.075,0.889-1.649,1.286
		c-1.578,1.09-3.409,1.971-5.221,2.602c-3.626,1.264-7.742,1.481-11.253-0.262l-0.234,0.117c2.122,2.926,4.79,5.164,8.374,5.964
		c3.69,0.823,7.479,0.441,11.222,0.398c2.517-0.029,5.224-0.244,7.66-0.993c1.031-1.084,1.902-2.271,2.448-3.558
		c0.126-0.298,0.461-0.762,0.783-1.211c0.508-0.707,1.033-1.437,1.215-2.116l0.386-1.45L388.269,100.259z"/>
	<path fill="#FFFFFF" stroke="#494949" stroke-width="0.25" stroke-miterlimit="10" d="M377.25,109.299
		c-3.742,0.043-7.53,0.425-11.222-0.398c-3.584-0.8-6.252-3.038-8.374-5.964l0.234-0.117c3.512,1.743,7.627,1.526,11.253,0.262
		c1.812-0.631,3.643-1.511,5.221-2.602c0.575-0.397,1.109-0.846,1.649-1.286c-1.803-0.557-3.495-1.258-4.927-2.078
		c-1.241-0.71-2.329-1.646-3.479-2.636c-0.014-0.012-0.026-0.022-0.04-0.034c-1.512-1.304-3.073-2.65-5.028-3.481
		c-0.971-0.412-1.972-0.679-2.944-0.792c-0.816,0.051-1.559,0.326-2.124,1.071c-0.247,0.326-0.463,0.73-0.637,1.246
		c-0.039,0.114-0.062,0.244-0.095,0.364c-0.158,1.114-0.264,2.244-0.297,3.394c-0.008,0.259-0.04,0.51-0.04,0.771
		c0,4.711,1.042,9.171,2.868,13.201c0.146,0.088,0.268,0.187,0.416,0.271c2.396,1.378,7.192,3.689,12.381,3.689
		c1.742,0,3.387-0.265,4.888-0.79c2.688-0.941,5.731-2.749,7.955-5.085C382.474,109.055,379.768,109.27,377.25,109.299z"/>
</g>
<g>
	<path fill="#B5B5B5" d="M521.681,107.607c-0.279,0.784-0.595,1.554-0.936,2.31C521.086,109.162,521.399,108.393,521.681,107.607z"
		/>
	<path fill="#B5B5B5" d="M511.03,122.17c-0.48,0.369-0.978,0.718-1.479,1.059C510.055,122.888,510.55,122.54,511.03,122.17z"/>
	<path fill="#B5B5B5" d="M522.048,106.616c-0.004-0.04-0.01-0.08-0.014-0.12c-0.109,0.342-0.201,0.69-0.32,1.025
		C521.822,107.218,521.948,106.923,522.048,106.616z"/>
	<path fill="#B5B5B5" d="M508.926,123.658c-0.485,0.316-0.99,0.61-1.494,0.899C507.938,124.268,508.438,123.974,508.926,123.658z"/>
	<path fill="#B5B5B5" d="M494.268,128.672c-0.889,0.074-1.791,0.115-2.699,0.115C492.477,128.787,493.379,128.746,494.268,128.672z"
		/>
	<path fill="#B5B5B5" d="M504.389,126.104c-0.5,0.22-1.013,0.413-1.525,0.607C503.376,126.516,503.889,126.323,504.389,126.104z"/>
	<path fill="#B5B5B5" d="M501.979,127.047c-0.513,0.176-1.031,0.323-1.556,0.473C500.945,127.37,501.466,127.222,501.979,127.047z"
		/>
	<path fill="#B5B5B5" d="M499.479,127.795c-0.529,0.136-1.073,0.239-1.615,0.347C498.403,128.034,498.947,127.929,499.479,127.795z"
		/>
	<path fill="#B5B5B5" d="M496.905,128.339c-0.591,0.1-1.196,0.164-1.8,0.23C495.709,128.503,496.314,128.438,496.905,128.339z"/>
	<path fill="#B5B5B5" d="M506.708,124.971c-0.493,0.265-1,0.507-1.507,0.748C505.711,125.479,506.215,125.236,506.708,124.971z"/>
	<path fill="#B5B5B5" d="M518.105,114.642c-0.41,0.609-0.842,1.2-1.291,1.778C517.266,115.842,517.695,115.251,518.105,114.642z"/>
	<path fill="#B5B5B5" d="M514.859,118.705c-0.457,0.485-0.935,0.953-1.417,1.409C513.927,119.658,514.402,119.19,514.859,118.705z"
		/>
	<path fill="#B5B5B5" d="M515.196,118.336c0.472-0.516,0.927-1.045,1.362-1.591C516.124,117.291,515.667,117.82,515.196,118.336z"/>
	<path fill="#B5B5B5" d="M520.678,110.064c-0.334,0.727-0.692,1.441-1.078,2.139C519.983,111.505,520.343,110.793,520.678,110.064z"
		/>
	<path fill="#B5B5B5" d="M475.021,118.7c2.354,0.785,4.905,1.406,7.369,1.711c10.592,1.315,21.69,1.421,30.317-5.816
		c2.258-1.895,4.562-3.989,6.485-6.229c0.755-0.88,2.261-2.42,3.295-3.328c-0.419-3.366-2.109-6.067-5.158-8.208
		c-2.053-1.444-4.511-2.146-7.51-2.146c-1.864,0-3.892,0.268-6.371,0.842c-3.558,0.822-7.069,1.959-10.469,3.06
		c-1.518,0.49-3.034,0.982-4.557,1.447c-1.258,0.384-2.503,0.799-3.74,1.213c-4.177,1.396-8.121,2.715-12.215,2.715c0,0,0,0-0.001,0
		c-2.095,0-4.052-0.347-5.979-1.061c-1.335-0.494-2.713-1.423-3.972-2.669c-0.188-0.217-2.441-3.082-2.92-5.08
		c0.022,0.145,0.304,2.159,0.326,2.302C461.475,106.828,465.453,115.508,475.021,118.7z"/>
	<path fill="#B5B5B5" d="M513.012,120.517c-0.47,0.427-0.959,0.833-1.455,1.231C512.055,121.351,512.539,120.942,513.012,120.517z"
		/>
	<path fill="#B5B5B5" d="M519.48,112.413c-0.375,0.67-0.774,1.324-1.195,1.962C518.706,113.737,519.105,113.083,519.48,112.413z"/>
	<path fill="#CCCCCC" d="M515.196,118.336c-0.112,0.123-0.226,0.248-0.337,0.369C514.973,118.583,515.084,118.459,515.196,118.336z"
		/>
	<path fill="#CCCCCC" d="M505.201,125.719c-0.271,0.128-0.538,0.264-0.812,0.384C504.663,125.983,504.931,125.847,505.201,125.719z"
		/>
	<path fill="#CCCCCC" d="M507.432,124.558c-0.239,0.138-0.479,0.282-0.724,0.414C506.953,124.839,507.19,124.695,507.432,124.558z"
		/>
	<path fill="#CCCCCC" d="M509.554,123.229c-0.211,0.144-0.416,0.292-0.628,0.429C509.138,123.52,509.343,123.374,509.554,123.229z"
		/>
	<path fill="#CCCCCC" d="M513.442,120.114c-0.146,0.135-0.286,0.271-0.433,0.403C513.156,120.385,513.298,120.249,513.442,120.114z"
		/>
	<path fill="#CCCCCC" d="M511.557,121.748c-0.176,0.141-0.348,0.285-0.524,0.422C511.209,122.033,511.381,121.889,511.557,121.748z"
		/>
	<path fill="#CCCCCC" d="M459.863,97.02c-0.092-0.622-0.183-1.244-0.265-1.869c-0.024,0.53-0.081,1.052-0.081,1.588
		c0-0.062,0.011-0.118,0.011-0.178C459.616,96.686,459.732,96.846,459.863,97.02z"/>
	<path fill="#CCCCCC" d="M519.6,112.203c-0.04,0.071-0.078,0.141-0.119,0.21C519.521,112.344,519.562,112.274,519.6,112.203z"/>
	<path fill="#CCCCCC" d="M520.745,109.917c-0.021,0.049-0.045,0.098-0.067,0.147C520.7,110.015,520.724,109.966,520.745,109.917z"/>
	<path fill="#CCCCCC" d="M502.861,126.71c-0.294,0.111-0.586,0.233-0.886,0.336C502.275,126.944,502.567,126.822,502.861,126.71z"/>
	<path fill="#CCCCCC" d="M521.714,107.521c-0.011,0.03-0.021,0.058-0.033,0.086C521.691,107.579,521.703,107.551,521.714,107.521z"
		/>
	<path fill="#CCCCCC" d="M516.814,116.42c-0.084,0.109-0.168,0.217-0.256,0.325C516.646,116.637,516.73,116.529,516.814,116.42z"/>
	<path fill="#CCCCCC" d="M518.285,114.375c-0.062,0.09-0.119,0.178-0.18,0.267C518.166,114.553,518.225,114.465,518.285,114.375z"/>
	<path fill="#CCCCCC" d="M497.861,128.142c-0.318,0.064-0.635,0.143-0.956,0.197C497.229,128.285,497.543,128.207,497.861,128.142z"
		/>
	<path fill="#CCCCCC" d="M500.423,127.52c-0.312,0.09-0.626,0.194-0.944,0.275C499.797,127.714,500.105,127.61,500.423,127.52z"/>
	<path fill="#CCCCCC" d="M495.105,128.569c-0.279,0.031-0.558,0.08-0.84,0.103C494.55,128.648,494.826,128.6,495.105,128.569z"/>
</g>
<g>
	<path fill="#B5B5B5" d="M632.271,106.738c-0.281,0.785-0.595,1.555-0.936,2.31C631.678,108.293,631.989,107.524,632.271,106.738z"
		/>
	<path fill="#B5B5B5" d="M621.623,121.302c-0.483,0.369-0.979,0.718-1.479,1.059C620.646,122.02,621.14,121.671,621.623,121.302z"/>
	<path fill="#B5B5B5" d="M632.637,105.747c-0.003-0.04-0.007-0.08-0.01-0.12c-0.11,0.342-0.202,0.691-0.323,1.025
		C632.414,106.35,632.538,106.055,632.637,105.747z"/>
	<path fill="#B5B5B5" d="M619.518,122.79c-0.485,0.316-0.991,0.61-1.492,0.899C618.528,123.399,619.027,123.105,619.518,122.79z"/>
	<path fill="#B5B5B5" d="M604.859,127.803c-0.893,0.074-1.791,0.114-2.702,0.114C603.068,127.917,603.969,127.877,604.859,127.803z"
		/>
	<path fill="#B5B5B5" d="M614.98,125.235c-0.503,0.22-1.016,0.413-1.526,0.607C613.967,125.647,614.479,125.455,614.98,125.235z"/>
	<path fill="#B5B5B5" d="M612.567,126.178c-0.512,0.176-1.033,0.323-1.555,0.473C611.534,126.501,612.058,126.354,612.567,126.178z"
		/>
	<path fill="#B5B5B5" d="M610.07,126.926c-0.531,0.136-1.077,0.239-1.618,0.347C608.993,127.166,609.539,127.061,610.07,126.926z"/>
	<path fill="#B5B5B5" d="M607.496,127.47c-0.59,0.1-1.197,0.164-1.798,0.23C606.299,127.634,606.906,127.57,607.496,127.47z"/>
	<path fill="#B5B5B5" d="M617.299,124.103c-0.491,0.265-1,0.507-1.505,0.748C616.303,124.61,616.808,124.368,617.299,124.103z"/>
	<path fill="#B5B5B5" d="M628.697,113.773c-0.41,0.609-0.844,1.2-1.293,1.778C627.854,114.974,628.287,114.382,628.697,113.773z"/>
	<path fill="#B5B5B5" d="M625.449,117.836c-0.458,0.485-0.933,0.953-1.417,1.409C624.519,118.789,624.991,118.321,625.449,117.836z"
		/>
	<path fill="#B5B5B5" d="M625.786,117.467c0.473-0.517,0.927-1.046,1.366-1.591C626.716,116.421,626.259,116.951,625.786,117.467z"
		/>
	<path fill="#B5B5B5" d="M631.268,109.196c-0.333,0.727-0.69,1.441-1.074,2.139C630.575,110.636,630.935,109.924,631.268,109.196z"
		/>
	<path fill="#2CBFEB" stroke="#2CBFEB" stroke-width="0.25" stroke-miterlimit="10" d="M585.613,117.831
		c2.354,0.785,4.905,1.406,7.371,1.711c10.59,1.315,21.688,1.421,30.313-5.817c2.26-1.895,4.562-3.989,6.484-6.229
		c0.758-0.881,2.264-2.421,3.296-3.329c-0.417-3.365-2.108-6.066-5.155-8.208c-2.054-1.444-4.512-2.146-7.511-2.146
		c-1.867,0-3.894,0.268-6.371,0.842c-3.555,0.822-7.07,1.959-10.469,3.06c-1.518,0.49-3.035,0.982-4.557,1.447
		c-1.26,0.384-2.505,0.799-3.74,1.213c-4.177,1.396-8.119,2.715-12.215,2.715c0,0,0,0-0.003,0c-2.095,0-4.05-0.347-5.979-1.061
		c-1.335-0.493-2.714-1.423-3.97-2.668c-0.188-0.217-2.443-3.082-2.92-5.08c0.021,0.145,0.302,2.158,0.324,2.302
		C572.066,105.959,576.045,114.639,585.613,117.831z"/>
	<path fill="#B5B5B5" d="M623.604,119.648c-0.473,0.427-0.96,0.833-1.456,1.231C622.645,120.482,623.132,120.073,623.604,119.648z"
		/>
	<path fill="#B5B5B5" d="M630.071,111.544c-0.374,0.67-0.773,1.324-1.194,1.962C629.298,112.868,629.697,112.214,630.071,111.544z"
		/>
	<path fill="#CCCCCC" d="M625.786,117.467c-0.109,0.123-0.224,0.248-0.337,0.369C625.562,117.715,625.677,117.591,625.786,117.467z"
		/>
	<path fill="#CCCCCC" d="M615.794,124.851c-0.271,0.128-0.539,0.264-0.812,0.384C615.255,125.114,615.521,124.979,615.794,124.851z"
		/>
	<path fill="#CCCCCC" d="M618.023,123.689c-0.241,0.138-0.479,0.282-0.727,0.414C617.544,123.971,617.782,123.827,618.023,123.689z"
		/>
	<path fill="#CCCCCC" d="M620.144,122.361c-0.209,0.143-0.413,0.291-0.626,0.429C619.729,122.651,619.935,122.505,620.144,122.361z"
		/>
	<path fill="#CCCCCC" d="M624.032,119.245c-0.145,0.135-0.285,0.271-0.43,0.403C623.747,119.516,623.89,119.38,624.032,119.245z"/>
	<path fill="#CCCCCC" d="M622.146,120.879c-0.178,0.141-0.351,0.286-0.523,0.423C621.798,121.164,621.971,121.02,622.146,120.879z"
		/>
	<path fill="#CCCCCC" d="M630.191,111.334c-0.04,0.071-0.08,0.14-0.12,0.21C630.111,111.475,630.151,111.405,630.191,111.334z"/>
	<path fill="#CCCCCC" d="M631.337,109.048c-0.021,0.049-0.047,0.098-0.069,0.147C631.29,109.146,631.315,109.097,631.337,109.048z"
		/>
	<path fill="#CCCCCC" d="M613.454,125.842c-0.298,0.111-0.586,0.233-0.887,0.336C612.868,126.075,613.156,125.953,613.454,125.842z"
		/>
	<path fill="#CCCCCC" d="M632.304,106.652c-0.011,0.03-0.021,0.058-0.031,0.086C632.282,106.71,632.293,106.682,632.304,106.652z"/>
	<path fill="#CCCCCC" d="M627.404,115.551c-0.083,0.109-0.168,0.217-0.252,0.325C627.236,115.768,627.321,115.66,627.404,115.551z"
		/>
	<path fill="#CCCCCC" d="M628.877,113.506c-0.062,0.09-0.121,0.178-0.18,0.267C628.756,113.685,628.814,113.596,628.877,113.506z"/>
	<path fill="#CCCCCC" d="M608.452,127.273c-0.319,0.064-0.634,0.143-0.956,0.197C607.818,127.416,608.133,127.338,608.452,127.273z"
		/>
	<path fill="#CCCCCC" d="M611.015,126.651c-0.312,0.09-0.626,0.194-0.942,0.275C610.389,126.845,610.696,126.741,611.015,126.651z"
		/>
	<path fill="#CCCCCC" d="M605.698,127.7c-0.282,0.031-0.56,0.08-0.839,0.103C605.141,127.78,605.416,127.731,605.698,127.7z"/>
</g>
<g>
	<path fill="#B5B5B5" d="M418.562,107.887c-0.28,0.785-0.595,1.554-0.936,2.31C417.969,109.441,418.282,108.673,418.562,107.887z"/>
	<path fill="#B5B5B5" d="M407.913,122.451c-0.481,0.369-0.977,0.717-1.478,1.059C406.938,123.168,407.432,122.82,407.913,122.451z"
		/>
	<path fill="#B5B5B5" d="M418.93,106.896c-0.004-0.04-0.009-0.08-0.013-0.12c-0.11,0.341-0.201,0.69-0.32,1.025
		C418.704,107.498,418.831,107.204,418.93,106.896z"/>
	<path fill="#B5B5B5" d="M405.808,123.938c-0.485,0.315-0.989,0.61-1.493,0.899C404.82,124.548,405.319,124.254,405.808,123.938z"/>
	<path fill="#B5B5B5" d="M391.15,128.952c-0.891,0.074-1.791,0.115-2.701,0.115C389.36,129.067,390.261,129.026,391.15,128.952z"/>
	<path fill="#B5B5B5" d="M401.271,126.383c-0.5,0.22-1.013,0.413-1.527,0.607C400.259,126.796,400.771,126.604,401.271,126.383z"/>
	<path fill="#B5B5B5" d="M398.86,127.327c-0.512,0.176-1.033,0.322-1.556,0.473C397.828,127.649,398.349,127.502,398.86,127.327z"/>
	<path fill="#B5B5B5" d="M396.361,128.075c-0.531,0.135-1.075,0.239-1.617,0.347C395.286,128.314,395.83,128.21,396.361,128.075z"/>
	<path fill="#B5B5B5" d="M393.789,128.619c-0.591,0.1-1.198,0.164-1.8,0.23C392.591,128.783,393.197,128.719,393.789,128.619z"/>
	<path fill="#B5B5B5" d="M403.591,125.251c-0.492,0.265-1,0.507-1.506,0.748C402.593,125.759,403.099,125.517,403.591,125.251z"/>
	<path fill="#B5B5B5" d="M414.987,114.922c-0.409,0.609-0.84,1.2-1.29,1.778C414.147,116.123,414.578,115.531,414.987,114.922z"/>
	<path fill="#B5B5B5" d="M411.742,118.985c-0.458,0.486-0.933,0.953-1.417,1.409C410.811,119.938,411.284,119.471,411.742,118.985z"
		/>
	<path fill="#B5B5B5" d="M412.078,118.616c0.473-0.516,0.927-1.045,1.365-1.591C413.007,117.571,412.55,118.1,412.078,118.616z"/>
	<path fill="#B5B5B5" d="M417.561,110.344c-0.334,0.729-0.693,1.442-1.078,2.14C416.866,111.786,417.225,111.073,417.561,110.344z"
		/>
	<path fill="#FFFFFF" stroke="#494949" stroke-width="0.25" stroke-miterlimit="10" d="M371.904,118.979
		c2.354,0.786,4.906,1.406,7.371,1.711c10.59,1.315,21.689,1.421,30.316-5.816c2.257-1.895,4.562-3.99,6.484-6.23
		c0.757-0.88,2.262-2.42,3.296-3.328c-0.419-3.365-2.109-6.066-5.158-8.208c-2.054-1.443-4.511-2.146-7.51-2.146
		c-1.865,0-3.892,0.268-6.371,0.842c-3.556,0.822-7.069,1.96-10.467,3.06c-1.519,0.491-3.035,0.982-4.558,1.448
		c-1.258,0.383-2.502,0.799-3.739,1.213c-4.177,1.396-8.12,2.715-12.214,2.715c0,0,0,0-0.002,0c-2.094,0-4.051-0.347-5.98-1.062
		c-1.335-0.493-2.713-1.422-3.97-2.668c-0.188-0.217-2.444-3.082-2.919-5.08c0.021,0.145,0.302,2.159,0.325,2.302
		C358.358,107.108,362.336,115.789,371.904,118.979z"/>
	<path fill="#B5B5B5" d="M409.895,120.797c-0.471,0.426-0.959,0.833-1.454,1.231C408.938,121.631,409.422,121.222,409.895,120.797z"
		/>
	<path fill="#B5B5B5" d="M416.363,112.693c-0.376,0.67-0.775,1.324-1.195,1.962C415.588,114.017,415.987,113.363,416.363,112.693z"
		/>
	<path fill="#CCCCCC" d="M412.078,118.616c-0.111,0.124-0.223,0.248-0.336,0.369C411.855,118.863,411.967,118.74,412.078,118.616z"
		/>
	<path fill="#CCCCCC" d="M402.084,125.999c-0.271,0.128-0.539,0.265-0.812,0.384C401.545,126.263,401.812,126.127,402.084,125.999z"
		/>
	<path fill="#CCCCCC" d="M404.314,124.837c-0.242,0.138-0.479,0.282-0.724,0.414C403.836,125.119,404.072,124.976,404.314,124.837z"
		/>
	<path fill="#CCCCCC" d="M406.438,123.51c-0.212,0.143-0.416,0.291-0.63,0.428C406.021,123.8,406.226,123.654,406.438,123.51z"/>
	<path fill="#CCCCCC" d="M410.325,120.394c-0.146,0.134-0.286,0.271-0.432,0.403C410.039,120.665,410.18,120.528,410.325,120.394z"
		/>
	<path fill="#CCCCCC" d="M408.439,122.028c-0.177,0.141-0.349,0.286-0.526,0.423C408.092,122.312,408.264,122.169,408.439,122.028z"
		/>
	<path fill="#CCCCCC" d="M416.481,112.484c-0.04,0.07-0.078,0.14-0.118,0.209C416.403,112.624,416.443,112.554,416.481,112.484z"/>
	<path fill="#CCCCCC" d="M417.628,110.197c-0.021,0.049-0.046,0.098-0.067,0.146C417.582,110.295,417.606,110.247,417.628,110.197z"
		/>
	<path fill="#CCCCCC" d="M399.744,126.991c-0.294,0.111-0.585,0.233-0.884,0.336C399.159,127.224,399.45,127.102,399.744,126.991z"
		/>
	<path fill="#CCCCCC" d="M418.597,107.801c-0.012,0.029-0.021,0.058-0.032,0.086C418.575,107.859,418.585,107.831,418.597,107.801z"
		/>
	<path fill="#CCCCCC" d="M413.697,116.7c-0.085,0.108-0.168,0.217-0.254,0.325C413.529,116.917,413.612,116.809,413.697,116.7z"/>
	<path fill="#CCCCCC" d="M415.168,114.655c-0.062,0.089-0.119,0.179-0.181,0.267C415.049,114.834,415.106,114.745,415.168,114.655z"
		/>
	<path fill="#CCCCCC" d="M394.744,128.422c-0.318,0.064-0.633,0.143-0.956,0.197C394.111,128.565,394.426,128.486,394.744,128.422z"
		/>
	<path fill="#CCCCCC" d="M397.306,127.8c-0.314,0.091-0.626,0.194-0.944,0.275C396.68,127.994,396.989,127.891,397.306,127.8z"/>
	<path fill="#CCCCCC" d="M391.989,128.849c-0.28,0.031-0.558,0.079-0.838,0.103C391.432,128.928,391.708,128.88,391.989,128.849z"/>
</g>
<path fill="#8E8E8E" d="M521.93,105.553c-1.033,0.908-1.979,1.932-2.732,2.812c-1.923,2.24-4.229,4.334-6.485,6.229
	c-8.627,7.237-19.728,7.131-30.317,5.816c-2.464-0.306-5.016-0.926-7.369-1.711c-9.568-3.192-13.549-11.872-15.097-21.247
	c-0.022-0.144-0.041-0.289-0.062-0.434c-0.131-0.174-0.247-0.333-0.335-0.458c0,0.06-0.009,0.118-0.009,0.178
	c0,17.699,14.349,32.047,32.047,32.047c0.91,0,1.812-0.041,2.699-0.115c0.282-0.023,0.561-0.072,0.841-0.103
	c0.603-0.066,1.208-0.13,1.799-0.23c0.323-0.054,0.638-0.132,0.956-0.197c0.542-0.108,1.086-0.211,1.617-0.347
	c0.316-0.081,0.63-0.185,0.942-0.275c0.522-0.15,1.043-0.297,1.556-0.473c0.299-0.103,0.591-0.225,0.885-0.336
	c0.515-0.194,1.025-0.387,1.525-0.607c0.274-0.12,0.542-0.256,0.812-0.384c0.507-0.241,1.014-0.483,1.507-0.748
	c0.245-0.132,0.482-0.276,0.724-0.414c0.506-0.29,1.009-0.583,1.494-0.899c0.212-0.137,0.417-0.285,0.628-0.429
	c0.501-0.341,0.996-0.69,1.479-1.059c0.179-0.137,0.351-0.282,0.524-0.422c0.496-0.398,0.985-0.805,1.455-1.231
	c0.146-0.132,0.286-0.268,0.433-0.403c0.482-0.456,0.96-0.924,1.417-1.409c0.111-0.122,0.225-0.247,0.337-0.369
	c0.471-0.516,0.928-1.045,1.364-1.591c0.086-0.108,0.17-0.216,0.254-0.325c0.449-0.578,0.881-1.169,1.291-1.778
	c0.061-0.089,0.119-0.177,0.18-0.267c0.421-0.638,0.82-1.292,1.195-1.962c0.04-0.069,0.078-0.139,0.119-0.21
	c0.384-0.697,0.742-1.412,1.076-2.139c0.022-0.049,0.047-0.099,0.067-0.147c0.341-0.755,0.654-1.525,0.937-2.31
	c0.012-0.028,0.021-0.057,0.032-0.086c0.119-0.335,0.211-0.684,0.32-1.025c0.156-0.485,0.324-0.963,0.456-1.458L521.93,105.553z"/>
<path fill="#20A5C4" d="M632.521,104.685c-1.032,0.908-1.979,1.931-2.736,2.812c-1.922,2.24-4.227,4.334-6.484,6.229
	c-8.627,7.238-19.726,7.132-30.313,5.817c-2.466-0.305-5.018-0.927-7.371-1.711c-9.568-3.192-13.547-11.872-15.098-21.247
	c-0.022-0.144-0.041-0.29-0.062-0.434c-0.093-0.622-0.182-1.245-0.264-1.869c-0.026,0.53-0.08,1.052-0.08,1.588
	c0,17.699,14.349,32.047,32.046,32.047c0.911,0,1.812-0.04,2.702-0.114c0.279-0.023,0.557-0.072,0.839-0.103
	c0.601-0.066,1.208-0.13,1.798-0.23c0.322-0.054,0.637-0.132,0.956-0.197c0.541-0.108,1.087-0.211,1.618-0.347
	c0.316-0.082,0.63-0.185,0.942-0.275c0.521-0.15,1.043-0.297,1.555-0.473c0.301-0.103,0.589-0.225,0.887-0.336
	c0.513-0.194,1.024-0.387,1.526-0.607c0.272-0.12,0.541-0.256,0.812-0.384c0.505-0.241,1.014-0.483,1.505-0.748
	c0.245-0.132,0.483-0.276,0.727-0.414c0.5-0.29,1.007-0.583,1.492-0.899c0.213-0.138,0.417-0.286,0.626-0.429
	c0.503-0.341,0.996-0.69,1.479-1.059c0.175-0.137,0.348-0.282,0.521-0.423c0.498-0.398,0.985-0.804,1.458-1.231
	c0.145-0.132,0.285-0.268,0.43-0.403c0.484-0.456,0.959-0.923,1.417-1.409c0.112-0.121,0.228-0.246,0.337-0.369
	c0.473-0.517,0.93-1.046,1.366-1.591c0.084-0.108,0.169-0.216,0.252-0.325c0.448-0.578,0.883-1.169,1.293-1.778
	c0.059-0.089,0.116-0.177,0.18-0.267c0.421-0.638,0.82-1.292,1.194-1.962c0.04-0.07,0.08-0.139,0.119-0.21
	c0.385-0.697,0.742-1.412,1.075-2.139c0.022-0.05,0.049-0.099,0.069-0.147c0.341-0.755,0.652-1.525,0.934-2.31
	c0.014-0.028,0.022-0.056,0.033-0.086c0.121-0.334,0.213-0.684,0.323-1.025c0.152-0.485,0.321-0.964,0.453-1.459L632.521,104.685z"
	/>
<path fill="#FFFFFF" stroke="#494949" stroke-width="0.25" stroke-miterlimit="10" d="M418.812,105.833
	c-1.034,0.908-1.979,1.932-2.735,2.812c-1.922,2.24-4.229,4.335-6.484,6.23c-8.627,7.237-19.728,7.131-30.316,5.816
	c-2.464-0.305-5.018-0.926-7.371-1.711c-9.568-3.191-13.546-11.872-15.096-21.246c-0.023-0.144-0.04-0.289-0.062-0.434
	c-0.093-0.621-0.181-1.244-0.263-1.868c-0.026,0.53-0.081,1.052-0.081,1.588c0,17.699,14.349,32.047,32.047,32.047
	c0.91,0,1.811-0.041,2.701-0.115c0.281-0.024,0.558-0.072,0.838-0.103c0.602-0.066,1.208-0.13,1.8-0.23
	c0.322-0.054,0.637-0.133,0.956-0.197c0.542-0.108,1.085-0.212,1.617-0.347c0.318-0.082,0.63-0.185,0.944-0.275
	c0.522-0.15,1.043-0.296,1.556-0.473c0.298-0.103,0.589-0.225,0.884-0.336c0.515-0.194,1.027-0.387,1.527-0.607
	c0.273-0.12,0.542-0.256,0.812-0.384c0.507-0.241,1.014-0.482,1.506-0.748c0.245-0.132,0.481-0.276,0.724-0.414
	c0.504-0.289,1.007-0.583,1.493-0.899c0.214-0.137,0.418-0.286,0.63-0.428c0.501-0.342,0.994-0.69,1.477-1.059
	c0.179-0.137,0.351-0.282,0.526-0.423c0.495-0.398,0.983-0.805,1.454-1.231c0.146-0.132,0.285-0.269,0.432-0.403
	c0.484-0.456,0.959-0.923,1.417-1.409c0.113-0.122,0.225-0.246,0.336-0.369c0.472-0.516,0.929-1.045,1.365-1.591
	c0.086-0.107,0.169-0.216,0.254-0.325c0.45-0.578,0.881-1.169,1.29-1.778c0.062-0.088,0.119-0.178,0.181-0.267
	c0.42-0.638,0.819-1.292,1.195-1.962c0.04-0.069,0.078-0.139,0.118-0.209c0.385-0.698,0.744-1.412,1.078-2.14
	c0.021-0.049,0.047-0.098,0.067-0.146c0.341-0.756,0.654-1.525,0.937-2.31c0.012-0.028,0.021-0.057,0.032-0.086
	c0.119-0.335,0.21-0.684,0.32-1.025c0.156-0.486,0.324-0.964,0.456-1.459L418.812,105.833z"/>
<path fill="#4C4C4C" d="M522.261,87.756c-0.867-1.216-1.82-2.472-2.583-3.257c-2.303-2.383-5.216-4.388-8.422-5.798
	c-4.247-1.866-8.987-2.559-13.604-3.191c2.312,1.226,4.586,2.709,5.432,4.321c0.534,1.02,1.05,2.17,1.281,3.306
	c0.259,1.261,0.266,2.91,1.261,3.827c0.817,0.754,2.294,0.879,3.286,1.355c1.269,0.612,2.529,1.239,3.783,1.882
	c2.652,1.366,5.259,2.826,7.92,4.181c0.849,0.433,1.858,0.968,2.956,1.489C523.495,93.054,523.018,90.345,522.261,87.756z"/>
<path fill="#1F5268" d="M632.854,86.887c-0.866-1.216-1.822-2.473-2.586-3.257c-2.303-2.383-5.214-4.388-8.421-5.798
	c-4.248-1.866-8.984-2.559-13.604-3.191c2.312,1.226,4.585,2.708,5.43,4.321c0.535,1.02,1.052,2.17,1.282,3.306
	c0.26,1.261,0.267,2.911,1.26,3.827c0.82,0.754,2.296,0.878,3.288,1.355c1.267,0.612,2.53,1.239,3.782,1.882
	c2.655,1.366,5.258,2.826,7.921,4.181c0.849,0.433,1.86,0.968,2.954,1.489C634.087,92.185,633.607,89.477,632.854,86.887z"/>
<path fill="#FFFFFF" stroke="#494949" stroke-width="0.25" stroke-miterlimit="10" d="M419.145,88.037
	c-0.867-1.217-1.823-2.473-2.584-3.258c-2.303-2.383-5.216-4.388-8.422-5.798c-4.248-1.865-8.987-2.559-13.604-3.191
	c2.313,1.226,4.586,2.709,5.432,4.321c0.535,1.02,1.049,2.171,1.281,3.307c0.258,1.261,0.266,2.91,1.26,3.827
	c0.819,0.754,2.294,0.879,3.286,1.356c1.27,0.611,2.53,1.238,3.783,1.882c2.654,1.366,5.26,2.826,7.92,4.181
	c0.85,0.433,1.86,0.969,2.957,1.489C420.378,93.334,419.9,90.625,419.145,88.037z"/>
<g>
	<path fill="#4C4C4C" d="M521.615,85.68c0.067,0.188,0.125,0.381,0.188,0.57C521.74,86.061,521.685,85.868,521.615,85.68z"/>
	<path fill="#4C4C4C" d="M520.169,82.373c0.082,0.162,0.174,0.319,0.253,0.483C520.343,82.691,520.251,82.535,520.169,82.373z"/>
	<path fill="#4C4C4C" d="M512.384,72.402c-0.006,0-0.014,0-0.02,0c0.05,0.043,0.104,0.086,0.155,0.131
		C512.474,72.491,512.431,72.443,512.384,72.402z"/>
	<path fill="#4C4C4C" d="M516.732,76.953c0.159,0.206,0.312,0.419,0.471,0.629C517.045,77.372,516.896,77.158,516.732,76.953z"/>
	<path fill="#4C4C4C" d="M518.49,79.436c0.162,0.254,0.325,0.506,0.479,0.764C518.815,79.941,518.652,79.689,518.49,79.436z"/>
	<path fill="#B5B5B5" d="M522.344,87.869c-0.156-0.549-0.352-1.082-0.538-1.619c0.17,0.494,0.311,1.001,0.455,1.506
		C522.289,87.794,522.316,87.832,522.344,87.869z"/>
	<path fill="#B5B5B5" d="M517.203,77.582c0.45,0.602,0.879,1.221,1.287,1.854C518.082,78.801,517.653,78.184,517.203,77.582z"/>
	<path fill="#B5B5B5" d="M520.422,82.855c0.442,0.917,0.84,1.86,1.193,2.825C521.262,84.716,520.864,83.773,520.422,82.855z"/>
	<path fill="#B5B5B5" d="M518.971,80.199c0.429,0.707,0.826,1.432,1.198,2.173C519.797,81.631,519.396,80.906,518.971,80.199z"/>
	<path fill="#B5B5B5" d="M516.732,76.953c-1.264-1.605-2.673-3.083-4.211-4.42C514.062,73.868,515.471,75.349,516.732,76.953z"/>
</g>
<g>
	<path fill="#4C4C4C" d="M632.206,84.812c0.069,0.188,0.123,0.381,0.188,0.57C632.329,85.192,632.275,84.999,632.206,84.812z"/>
	<path fill="#4C4C4C" d="M630.758,81.504c0.085,0.162,0.177,0.319,0.254,0.482C630.935,81.823,630.843,81.666,630.758,81.504z"/>
	<path fill="#4C4C4C" d="M622.974,71.533c-0.004,0-0.015,0-0.018,0c0.051,0.043,0.104,0.086,0.156,0.131
		C623.065,71.623,623.021,71.574,622.974,71.533z"/>
	<path fill="#4C4C4C" d="M627.324,76.083c0.16,0.206,0.312,0.419,0.468,0.629C627.636,76.503,627.484,76.29,627.324,76.083z"/>
	<path fill="#4C4C4C" d="M629.082,78.567c0.16,0.254,0.325,0.506,0.479,0.764C629.407,79.073,629.242,78.821,629.082,78.567z"/>
	<path fill="#B5B5B5" d="M632.935,87c-0.156-0.549-0.352-1.083-0.538-1.619c0.173,0.494,0.312,1.002,0.456,1.506
		C632.879,86.925,632.908,86.963,632.935,87z"/>
	<path fill="#B5B5B5" d="M627.792,76.712c0.45,0.603,0.88,1.221,1.29,1.854C628.672,77.933,628.242,77.315,627.792,76.712z"/>
	<path fill="#B5B5B5" d="M631.012,81.986c0.443,0.918,0.842,1.861,1.194,2.825C631.854,83.847,631.455,82.904,631.012,81.986z"/>
	<path fill="#B5B5B5" d="M629.562,79.331c0.428,0.707,0.826,1.432,1.194,2.173C630.39,80.762,629.989,80.038,629.562,79.331z"/>
	<path fill="#B5B5B5" d="M627.324,76.083c-1.266-1.604-2.674-3.083-4.212-4.419C624.654,73,626.061,74.48,627.324,76.083z"/>
</g>
<g>
	<path fill="#4C4C4C" d="M418.498,85.96c0.069,0.188,0.124,0.381,0.188,0.571C418.622,86.341,418.567,86.147,418.498,85.96z"/>
	<path fill="#4C4C4C" d="M417.051,82.652c0.083,0.162,0.174,0.319,0.253,0.483C417.225,82.971,417.134,82.814,417.051,82.652z"/>
	<path fill="#4C4C4C" d="M409.267,72.682c-0.005,0-0.015,0-0.021,0c0.052,0.044,0.105,0.086,0.158,0.131
		C409.356,72.771,409.314,72.723,409.267,72.682z"/>
	<path fill="#4C4C4C" d="M413.615,77.232c0.161,0.206,0.312,0.419,0.47,0.629C413.928,77.651,413.777,77.438,413.615,77.232z"/>
	<path fill="#4C4C4C" d="M415.373,79.716c0.162,0.253,0.325,0.505,0.48,0.763C415.698,80.221,415.535,79.97,415.373,79.716z"/>
	<path fill="#B5B5B5" d="M419.227,88.149c-0.157-0.549-0.352-1.082-0.539-1.618c0.172,0.493,0.311,1.001,0.457,1.506
		C419.171,88.074,419.199,88.111,419.227,88.149z"/>
	<path fill="#B5B5B5" d="M414.085,77.861c0.451,0.603,0.879,1.221,1.288,1.855C414.964,79.082,414.536,78.464,414.085,77.861z"/>
	<path fill="#B5B5B5" d="M417.304,83.135c0.443,0.918,0.841,1.861,1.194,2.825C418.145,84.996,417.747,84.054,417.304,83.135z"/>
	<path fill="#B5B5B5" d="M415.854,80.479c0.427,0.707,0.825,1.432,1.196,2.173C416.68,81.911,416.28,81.186,415.854,80.479z"/>
	<path fill="#B5B5B5" d="M413.615,77.232c-1.263-1.605-2.672-3.083-4.211-4.42C410.945,74.148,412.354,75.629,413.615,77.232z"/>
</g>
<g>
	<path fill="#B5B5B5" d="M521.806,86.25c-0.063-0.189-0.12-0.382-0.188-0.57c-0.354-0.964-0.751-1.907-1.193-2.825
		c-0.079-0.164-0.171-0.321-0.253-0.483c-0.372-0.742-0.771-1.466-1.198-2.173c-0.153-0.258-0.316-0.51-0.479-0.764
		c-0.408-0.633-0.837-1.252-1.287-1.854c-0.158-0.21-0.31-0.423-0.471-0.629c-0.249-0.316-0.529-0.604-0.79-0.91
		c-0.532-0.085-1.03-0.188-1.438-0.276c-2.6-0.561-5.141-1.361-7.746-1.897c-2.994-0.617-6.066-0.683-9.109-0.808
		c-2.887-0.119-5.857-0.054-8.697-0.624c-3.19-0.639-6.739-3.153-5.468-6.677c-0.087,0.233-0.172,0.47-0.225,0.728
		c-0.325,1.631-0.062,3.08,0.8,4.308c1.856,2.659,6.048,3.604,9.485,4.132c1.187,0.181,2.379,0.345,3.576,0.508
		c0.176,0.023,0.354,0.048,0.529,0.073c4.617,0.632,9.355,1.325,13.604,3.191c3.206,1.41,6.119,3.415,8.422,5.798
		c0.763,0.785,1.718,2.041,2.583,3.257C522.114,87.251,521.976,86.744,521.806,86.25z"/>
	<path fill="#DDDDDD" d="M488.951,72.438c2.84,0.569,5.812,0.504,8.697,0.624c3.043,0.125,6.114,0.191,9.109,0.808
		c2.605,0.536,5.146,1.336,7.746,1.897c0.406,0.088,0.904,0.19,1.438,0.276c-1.06-1.248-2.185-2.437-3.423-3.51
		c-0.052-0.045-0.105-0.087-0.155-0.131c-5.598-4.796-12.85-7.71-20.798-7.71c-2.799,0-5.495,0.396-8.084,1.069
		C482.212,69.286,485.761,71.799,488.951,72.438z"/>
</g>
<g>
	<path fill="#DDDDDD" d="M526.011,99.041c-0.426-0.179-0.864-0.343-1.298-0.505c0.281,0.104,0.512,0.31,0.718,0.555
		C525.613,99.111,525.805,99.106,526.011,99.041z"/>
	<path fill="#B5B5B5" d="M464.069,85.91c1.615,3.739,5.189,5.556,7.901,6.42c6.145,1.955,12.587,1.082,18.819,0.234
		c2.448-0.334,4.981-0.678,7.4-0.827c0.849-0.052,1.731-0.122,2.645-0.193c7.165-0.563,15.297-1.205,19.139,5.021
		c1.367,2.217,2.112,4.78,2.7,7.029l0.001,0.088l-0.007,0.237c-0.006,0.13-0.006,0.268,0,0.422c0.562-2.304,0.894-4.695,0.93-7.161
		c-0.634-1.352-1.084-3.034-1.582-3.748c-5.518-7.916-16.723-7.808-25.302-8.272c-5.188-0.28-10.386-0.116-15.575-0.075
		c-4.059,0.032-8.93,0.497-12.229-2.334c-1.86-1.596-2.396-3.75-2.305-5.993c-1.314,1.643-2.517,3.386-3.492,5.272
		C463.234,83.361,463.535,84.672,464.069,85.91z"/>
</g>
<g>
	<path fill="#DDDDDD" d="M636.604,98.172c-0.429-0.179-0.863-0.343-1.3-0.505c0.281,0.104,0.514,0.31,0.719,0.555
		C636.204,98.243,636.394,98.238,636.604,98.172z"/>
	<path fill="#2CBFEB" d="M574.66,85.042c1.617,3.739,5.188,5.555,7.901,6.42c6.146,1.955,12.591,1.081,18.82,0.233
		c2.446-0.333,4.98-0.678,7.4-0.827c0.847-0.052,1.731-0.122,2.645-0.193c7.166-0.563,15.295-1.206,19.138,5.021
		c1.368,2.217,2.11,4.78,2.7,7.029v0.087l-0.007,0.237c-0.004,0.13-0.004,0.268,0,0.422c0.564-2.304,0.896-4.695,0.932-7.161
		c-0.635-1.352-1.083-3.034-1.582-3.748c-5.52-7.916-16.725-7.808-25.305-8.272c-5.188-0.281-10.384-0.116-15.57-0.075
		c-4.062,0.032-8.933,0.497-12.23-2.334c-1.859-1.597-2.394-3.751-2.302-5.994c-1.316,1.643-2.518,3.385-3.494,5.272
		C573.825,82.492,574.126,83.804,574.66,85.042z"/>
</g>
<g>
	<path fill="#DDDDDD" d="M422.894,99.321c-0.427-0.18-0.862-0.343-1.298-0.505c0.282,0.104,0.513,0.311,0.72,0.555
		C422.496,99.391,422.688,99.386,422.894,99.321z"/>
	<path fill="#FFFFFF" stroke="#494949" stroke-width="0.25" stroke-miterlimit="10" d="M360.952,86.19
		c1.616,3.739,5.189,5.556,7.904,6.421c6.142,1.955,12.587,1.081,18.818,0.233c2.448-0.333,4.981-0.678,7.4-0.827
		c0.848-0.052,1.731-0.121,2.644-0.192c7.166-0.564,15.297-1.206,19.139,5.021c1.366,2.217,2.112,4.78,2.699,7.028l0.002,0.088
		l-0.007,0.237c-0.006,0.13-0.006,0.268,0,0.422c0.562-2.304,0.894-4.695,0.931-7.161c-0.635-1.352-1.084-3.034-1.582-3.748
		c-5.52-7.916-16.724-7.808-25.303-8.271c-5.188-0.281-10.384-0.117-15.574-0.076c-4.06,0.033-8.93,0.498-12.229-2.334
		c-1.86-1.597-2.395-3.751-2.303-5.993c-1.317,1.643-2.517,3.385-3.494,5.272C360.117,83.642,360.417,84.952,360.952,86.19z"/>
</g>
<path fill="#DDDDDD" d="M468.912,82.75c3.299,2.831,8.17,2.366,12.229,2.334c5.189-0.042,10.388-0.206,15.575,0.075
	c8.579,0.464,19.784,0.356,25.302,8.272c0.498,0.714,0.948,2.396,1.582,3.748c0.002-0.147,0.017-0.292,0.017-0.44
	c0-1.667-0.166-3.291-0.411-4.889c-0.959-1.556-2.233-2.833-3.486-4.056l-0.489-0.478c-7.142-7.022-16.22-6.667-24.997-6.329
	c-1.896,0.074-3.77,0.179-5.681,0.148c-6.133,0-10.467-1.204-13.244-3.679c-2.205-1.964-2.613-4.605-2.042-7.003
	c-2.521,1.761-4.734,3.909-6.653,6.305C466.518,79,467.052,81.154,468.912,82.75z"/>
<path fill="#B6E5FF" d="M579.502,81.882c3.3,2.831,8.17,2.366,12.23,2.334c5.188-0.042,10.385-0.206,15.57,0.075
	c8.58,0.464,19.785,0.356,25.305,8.272c0.499,0.714,0.947,2.396,1.582,3.748c0.004-0.147,0.016-0.292,0.016-0.44
	c0-1.667-0.165-3.291-0.41-4.89c-0.96-1.555-2.234-2.833-3.487-4.056l-0.488-0.478c-7.142-7.022-16.22-6.667-24.998-6.329
	c-1.896,0.074-3.77,0.179-5.682,0.148c-6.133,0-10.465-1.204-13.245-3.679c-2.202-1.964-2.611-4.605-2.037-7.003
	c-2.522,1.76-4.737,3.909-6.655,6.305C577.108,78.131,577.643,80.286,579.502,81.882z"/>
<path fill="#FFFFFF" stroke="#494949" stroke-width="0.25" stroke-miterlimit="10" d="M365.795,83.031
	c3.299,2.832,8.169,2.367,12.229,2.334c5.19-0.041,10.386-0.206,15.574,0.076c8.579,0.464,19.784,0.356,25.303,8.271
	c0.498,0.714,0.947,2.396,1.582,3.748c0.002-0.147,0.015-0.292,0.015-0.44c0-1.667-0.166-3.291-0.412-4.89
	c-0.957-1.555-2.23-2.833-3.485-4.056l-0.488-0.478c-7.143-7.022-16.221-6.667-24.999-6.329c-1.896,0.075-3.769,0.179-5.68,0.148
	c-6.134,0-10.467-1.203-13.244-3.679c-2.204-1.963-2.615-4.604-2.042-7.003c-2.522,1.761-4.736,3.909-6.655,6.305
	C363.4,79.28,363.935,81.434,365.795,83.031z"/>
<g>
	<path fill="#2CBFEB" d="M632.396,85.381c-0.066-0.189-0.12-0.382-0.189-0.57c-0.354-0.964-0.751-1.907-1.194-2.825
		c-0.077-0.164-0.169-0.32-0.254-0.482c-0.368-0.742-0.769-1.466-1.196-2.173c-0.152-0.258-0.317-0.51-0.479-0.764
		c-0.41-0.633-0.84-1.252-1.29-1.854c-0.156-0.209-0.308-0.423-0.468-0.629c-0.249-0.316-0.531-0.604-0.791-0.91
		c-0.531-0.085-1.029-0.188-1.438-0.276c-2.6-0.561-5.141-1.361-7.748-1.897c-2.994-0.616-6.065-0.682-9.109-0.807
		c-2.884-0.119-5.858-0.054-8.695-0.624c-1.678-0.336-3.445-1.194-4.57-2.44c-0.693-0.772-1.135-1.694-1.15-2.737
		c-0.055,0.177-0.085,0.361-0.094,0.55c0,0.03-0.011,0.06-0.011,0.089c0,0.122,0.024,0.238,0.047,0.355
		c0.076,0.923,0.354,1.779,0.889,2.541c1.854,2.659,6.044,3.604,9.484,4.131c1.186,0.181,2.376,0.345,3.574,0.508
		c0.176,0.023,0.354,0.048,0.531,0.073c4.617,0.632,9.354,1.325,13.604,3.191c3.207,1.41,6.118,3.415,8.421,5.798
		c0.764,0.785,1.72,2.041,2.586,3.257C632.707,86.383,632.567,85.875,632.396,85.381z"/>
	<path fill="#B6E5FF" d="M623.112,71.664c-0.053-0.045-0.105-0.087-0.156-0.131c-5.596-4.796-12.849-7.71-20.799-7.71
		c-1.658,0-3.276,0.153-4.867,0.407c-0.461,0.074-0.925,0.147-1.384,0.241c-1.04,0.354-1.82,1.061-2.086,1.921
		c0.018,1.042,0.457,1.964,1.15,2.737c1.125,1.246,2.895,2.104,4.57,2.44c2.837,0.569,5.812,0.504,8.695,0.624
		c3.044,0.125,6.115,0.191,9.109,0.807c2.607,0.537,5.148,1.336,7.748,1.897c0.406,0.088,0.904,0.19,1.438,0.276
		C625.475,73.926,624.351,72.737,623.112,71.664z"/>
</g>
<g>
	<path fill="#FFFFFF" stroke="#494949" stroke-width="0.25" stroke-miterlimit="10" d="M418.688,86.531
		c-0.064-0.19-0.119-0.383-0.188-0.571c-0.354-0.964-0.751-1.906-1.194-2.825c-0.079-0.164-0.17-0.321-0.253-0.483
		c-0.371-0.741-0.771-1.466-1.195-2.173c-0.156-0.258-0.319-0.51-0.481-0.763c-0.409-0.634-0.837-1.252-1.288-1.855
		c-0.157-0.21-0.309-0.423-0.47-0.629c-0.249-0.316-0.529-0.604-0.789-0.91c-0.533-0.084-1.031-0.188-1.438-0.275
		c-2.6-0.562-5.141-1.362-7.747-1.898c-2.995-0.616-6.066-0.682-9.111-0.808c-2.884-0.119-5.857-0.054-8.697-0.624
		c-1.677-0.336-3.445-1.193-4.568-2.439c-0.694-0.772-1.137-1.694-1.152-2.737c-0.054,0.178-0.083,0.362-0.091,0.55
		c-0.003,0.03-0.014,0.06-0.014,0.09c0,0.122,0.028,0.238,0.048,0.355c0.077,0.923,0.354,1.779,0.887,2.54
		c1.857,2.659,6.047,3.604,9.487,4.132c1.185,0.181,2.378,0.345,3.575,0.508c0.176,0.024,0.354,0.048,0.529,0.073
		c4.617,0.632,9.356,1.326,13.604,3.191c3.206,1.41,6.119,3.415,8.423,5.798c0.76,0.785,1.716,2.041,2.584,3.258
		C418.997,87.532,418.858,87.024,418.688,86.531z"/>
	<path fill="#FFFFFF" stroke="#494949" stroke-width="0.25" stroke-miterlimit="10" d="M409.404,72.812
		c-0.053-0.045-0.106-0.086-0.158-0.131c-5.595-4.796-12.847-7.709-20.796-7.709c-1.659,0-3.279,0.153-4.866,0.407
		c-0.463,0.074-0.929,0.147-1.386,0.241c-1.041,0.354-1.82,1.061-2.086,1.921c0.017,1.043,0.458,1.965,1.152,2.737
		c1.123,1.246,2.892,2.104,4.568,2.439c2.84,0.569,5.812,0.504,8.697,0.624c3.044,0.125,6.116,0.191,9.111,0.808
		c2.606,0.536,5.147,1.336,7.747,1.898c0.406,0.087,0.904,0.19,1.438,0.275C411.768,75.075,410.642,73.886,409.404,72.812z"/>
</g>
<circle fill="#FFFFFF" stroke="#494949" stroke-width="0.25" stroke-miterlimit="10" cx="280.17" cy="96.151" r="32.188"/>
<g>
	<path fill="#1F5268" d="M209.674,218.395c-2.912-4.94-4.668-13.449-11.448-13.195c-1.027,0.042-2.161,0.269-3.442,0.751
		c-2.997,1.133-6.223,3.401-8.868,6.103c-2.973,3.032-5.208,6.626-5.457,9.872c0.004,1.149,0.101,2.211,0.249,3.241
		c4.107,0.776,7.858,3.037,11.956,3.933c5.042,1.104,10.246,1.188,15.384,1.004c3.665-0.139,7.356-0.441,11.058-0.692
		C215.422,226.24,212.164,222.617,209.674,218.395z"/>
	<path fill="#4C4C4C" d="M195.36,252.05c1.967,1.431,4.151,2.653,6.632,3.636c5.121,2.023,10.628,3.01,16.191,3.847
		c-1.116-0.368-2.253-0.722-3.549-0.966C208.099,257.322,201.633,254.88,195.36,252.05z"/>
	<path fill="#1F5268" d="M263.489,250.371c2.775,2.427,6.808,3.273,8.485,6.727c1.078,2.215,1.751,4.814,2.318,7.021
		c2.318,9.026,4.42,20.618-0.688,28.905c-1.562,2.535-3.798,5.049-6.453,6.633c2.135,4.854,4.509,9.609,7.808,13.916
		c8.578,11.186,19.897,9.354,28.023,2.133c5.022-9.711,8.087-20.562,8.784-32.066C305.523,264.586,281.731,255.771,263.489,250.371z
		"/>
	<path fill="#303030" d="M182.708,232.941c-0.88-2.767-1.635-5.148-2-7.775c-0.857-0.162-1.719-0.281-2.608-0.291l-0.591,0.59
		c-3.737-0.299-5.927,3.475-6.199,6.766c-0.691,8.269,4.25,10.076,11.201,13.582c4.148,2.088,8.448,4.256,12.85,6.237
		C189.078,247.496,185.215,240.832,182.708,232.941z"/>
	<path fill="#0C2C35" d="M273.605,293.023c5.107-8.287,3.005-19.879,0.688-28.907c-0.567-2.204-1.24-4.804-2.318-7.019
		c-1.678-3.453-5.71-4.302-8.485-6.729c-0.811-0.244-1.626-0.487-2.415-0.713c-10.098-2.917-19.998-6.467-29.216-11.564
		c-4.475-2.475-8.854-5.324-12.752-8.685c-3.701,0.251-7.393,0.555-11.058,0.692c-5.138,0.186-10.342,0.102-15.384-1.004
		c-4.098-0.896-7.849-3.154-11.956-3.933c0.365,2.627,1.12,5.01,2,7.774c2.507,7.892,6.37,14.556,12.652,19.108
		c6.272,2.83,12.739,5.271,19.274,6.519c1.295,0.244,2.433,0.596,3.549,0.963c10.121,1.524,20.417,2.559,28.875,8.477
		c11.311,7.918,14.998,20.062,20.095,31.648C269.808,298.07,272.043,295.559,273.605,293.023z"/>
</g>
<g>
	<path fill="#0C2C35" d="M230.886,286.865c-2.669,0.525-5.665,0.793-8.89,0.793c-7.103,0-14.878-1.281-21.962-3.477
		c-1.36,1.105-2.706,2.24-4.152,3.236c-3.974,2.746-8.582,4.963-13.14,6.555c-9.13,3.18-19.491,3.725-28.331-0.664l-0.591,0.295
		c5.342,7.367,12.057,13.002,21.082,15.016c9.292,2.076,18.828,1.111,28.248,1.004c6.337-0.072,13.15-0.615,19.285-2.5
		c2.594-2.73,4.788-5.721,6.162-8.957c0.318-0.75,1.161-1.916,1.973-3.051c1.276-1.777,2.599-3.613,3.055-5.326l0.972-3.652
		L230.886,286.865z"/>
	<path fill="#1F5268" d="M203.148,309.623c-9.42,0.107-18.957,1.072-28.248-1.004c-9.024-2.014-15.739-7.648-21.082-15.016
		l0.591-0.295c8.84,4.389,19.201,3.844,28.331,0.664c4.559-1.592,9.167-3.809,13.14-6.555c1.447-0.996,2.792-2.131,4.152-3.236
		c-4.54-1.4-8.798-3.16-12.402-5.229c-3.125-1.787-5.864-4.146-8.757-6.639c-0.032-0.027-0.065-0.055-0.102-0.086
		c-3.803-3.281-7.735-6.67-12.656-8.762c-2.443-1.041-4.965-1.711-7.412-1.994c-2.055,0.127-3.922,0.824-5.347,2.694
		c-0.622,0.819-1.167,1.84-1.604,3.134c-0.096,0.29-0.157,0.617-0.239,0.922c-0.397,2.803-0.66,5.646-0.747,8.541
		c-0.019,0.65-0.102,1.287-0.102,1.939c0,11.863,2.622,23.092,7.222,33.236c0.365,0.221,0.672,0.463,1.046,0.682
		c6.033,3.471,18.104,9.287,31.167,9.287c4.388,0,8.526-0.668,12.305-1.99c6.771-2.369,14.431-6.92,20.027-12.799
		C216.298,309.008,209.486,309.551,203.148,309.623z"/>
</g>
<g>
	<path fill="#B5B5B5" d="M307.151,306.066c-0.712,1.977-1.499,3.918-2.357,5.814C305.652,309.984,306.439,308.047,307.151,306.066z"
		/>
	<path fill="#B5B5B5" d="M280.34,342.73c-1.213,0.926-2.457,1.805-3.72,2.668C277.883,344.535,279.127,343.656,280.34,342.73z"/>
	<path fill="#B5B5B5" d="M308.073,303.574c-0.011-0.102-0.026-0.199-0.033-0.303c-0.278,0.857-0.508,1.732-0.805,2.584
		C307.506,305.09,307.822,304.348,308.073,303.574z"/>
	<path fill="#B5B5B5" d="M275.04,346.477c-1.227,0.796-2.494,1.531-3.761,2.261C272.551,348.008,273.809,347.271,275.04,346.477z"/>
	<path fill="#B5B5B5" d="M238.14,359.098c-2.24,0.186-4.508,0.285-6.798,0.285C233.632,359.383,235.9,359.281,238.14,359.098z"/>
	<path fill="#B5B5B5" d="M263.619,352.629c-1.259,0.555-2.549,1.039-3.844,1.527C261.07,353.668,262.359,353.184,263.619,352.629z"
		/>
	<path fill="#B5B5B5" d="M257.548,355.004c-1.286,0.441-2.6,0.812-3.913,1.189C254.948,355.814,256.262,355.445,257.548,355.004z"/>
	<path fill="#B5B5B5" d="M251.257,356.889c-1.337,0.343-2.706,0.604-4.07,0.871C248.552,357.492,249.92,357.227,251.257,356.889z"/>
	<path fill="#B5B5B5" d="M244.782,358.258c-1.489,0.25-3.015,0.414-4.531,0.58C241.767,358.672,243.293,358.508,244.782,358.258z"/>
	<path fill="#B5B5B5" d="M269.458,349.777c-1.24,0.672-2.518,1.28-3.794,1.885C266.946,351.059,268.218,350.449,269.458,349.777z"/>
	<path fill="#B5B5B5" d="M298.149,323.779c-1.033,1.532-2.117,3.02-3.251,4.475C296.032,326.799,297.116,325.312,298.149,323.779z"
		/>
	<path fill="#B5B5B5" d="M289.977,334.006c-1.153,1.221-2.346,2.396-3.568,3.549C287.631,336.402,288.824,335.227,289.977,334.006z"
		/>
	<path fill="#B5B5B5" d="M290.824,333.072c1.19-1.297,2.333-2.625,3.435-3.998C293.161,330.447,292.01,331.775,290.824,333.072z"/>
	<path fill="#B5B5B5" d="M304.624,312.252c-0.839,1.834-1.749,3.631-2.712,5.389C302.875,315.883,303.78,314.086,304.624,312.252z"
		/>
	<path fill="#2CBFEB" stroke="#2CBFEB" stroke-width="0.25" stroke-miterlimit="10" d="M189.691,333.992
		c5.926,1.977,12.352,3.539,18.556,4.309c26.657,3.312,54.602,3.578,76.319-14.641c5.684-4.771,11.484-10.045,16.326-15.687
		c1.903-2.214,5.691-6.093,8.294-8.38c-1.056-8.471-5.309-15.27-12.982-20.656c-5.17-3.639-11.356-5.4-18.905-5.4
		c-4.697,0-9.793,0.672-16.04,2.119c-8.951,2.062-17.795,4.932-26.349,7.697c-3.821,1.232-7.642,2.477-11.472,3.645
		c-3.166,0.967-6.3,2.016-9.416,3.059c-10.513,3.512-20.442,6.83-30.747,6.83c0,0,0,0-0.004,0c-5.273,0-10.2-0.871-15.058-2.67
		c-3.36-1.238-6.831-3.582-9.993-6.717c-0.474-0.547-6.152-7.758-7.351-12.789c0.056,0.363,0.761,5.434,0.821,5.793
		C155.589,304.109,165.604,325.957,189.691,333.992z"/>
	<path fill="#B5B5B5" d="M285.325,338.57c-1.184,1.067-2.414,2.09-3.662,3.096C282.917,340.664,284.137,339.639,285.325,338.57z"/>
	<path fill="#B5B5B5" d="M301.61,318.17c-0.946,1.688-1.949,3.326-3.011,4.937C299.662,321.496,300.665,319.857,301.61,318.17z"/>
	<path fill="#CCCCCC" d="M290.824,333.072c-0.28,0.312-0.561,0.629-0.847,0.934C290.263,333.701,290.544,333.387,290.824,333.072z"
		/>
	<path fill="#CCCCCC" d="M265.665,351.662c-0.682,0.324-1.355,0.668-2.046,0.967C264.309,352.326,264.983,351.986,265.665,351.662z"
		/>
	<path fill="#CCCCCC" d="M271.279,348.736c-0.609,0.352-1.203,0.709-1.82,1.041C270.076,349.445,270.67,349.088,271.279,348.736z"/>
	<path fill="#CCCCCC" d="M276.62,345.398c-0.53,0.357-1.046,0.729-1.581,1.077C275.574,346.127,276.09,345.758,276.62,345.398z"/>
	<path fill="#CCCCCC" d="M286.409,337.555c-0.363,0.336-0.718,0.683-1.084,1.017C285.691,338.236,286.046,337.891,286.409,337.555z"
		/>
	<path fill="#CCCCCC" d="M281.663,341.666c-0.444,0.355-0.877,0.719-1.323,1.064C280.786,342.385,281.219,342.021,281.663,341.666z"
		/>
	<path fill="#CCCCCC" d="M301.912,317.641c-0.104,0.179-0.2,0.354-0.301,0.529C301.712,317.992,301.812,317.818,301.912,317.641z"/>
	<path fill="#CCCCCC" d="M304.793,311.883c-0.054,0.125-0.114,0.248-0.169,0.369C304.679,312.131,304.739,312.008,304.793,311.883z"
		/>
	<path fill="#CCCCCC" d="M259.774,354.156c-0.742,0.285-1.475,0.59-2.226,0.848C258.299,354.746,259.033,354.441,259.774,354.156z"
		/>
	<path fill="#CCCCCC" d="M307.234,305.855c-0.029,0.07-0.06,0.143-0.083,0.211C307.175,305.998,307.206,305.928,307.234,305.855z"/>
	<path fill="#CCCCCC" d="M294.898,328.254c-0.21,0.277-0.421,0.543-0.639,0.82C294.477,328.797,294.688,328.531,294.898,328.254z"/>
	<path fill="#CCCCCC" d="M298.6,323.105c-0.151,0.225-0.3,0.443-0.45,0.674C298.3,323.551,298.448,323.33,298.6,323.105z"/>
	<path fill="#CCCCCC" d="M247.188,357.76c-0.802,0.166-1.594,0.359-2.406,0.498C245.593,358.119,246.386,357.926,247.188,357.76z"/>
	<path fill="#CCCCCC" d="M253.636,356.193c-0.793,0.229-1.577,0.487-2.378,0.694C252.059,356.682,252.838,356.424,253.636,356.193z"
		/>
	<path fill="#CCCCCC" d="M240.251,358.838c-0.705,0.076-1.401,0.197-2.111,0.26C238.85,359.035,239.546,358.914,240.251,358.838z"/>
</g>
<path fill="#20A5C4" d="M307.778,300.896c-2.605,2.281-4.983,4.863-6.887,7.077c-4.841,5.642-10.642,10.914-16.326,15.687
	c-21.717,18.219-49.662,17.951-76.319,14.641c-6.204-0.77-12.629-2.332-18.556-4.309c-24.087-8.035-34.102-29.883-38.001-53.488
	c-0.06-0.359-0.102-0.727-0.157-1.086c-0.234-1.566-0.457-3.133-0.664-4.707c-0.064,1.334-0.202,2.65-0.202,3.996
	c0,44.559,36.12,80.676,80.675,80.676c2.291,0,4.559-0.102,6.798-0.285c0.71-0.062,1.406-0.184,2.111-0.26
	c1.516-0.166,3.042-0.33,4.531-0.58c0.812-0.139,1.604-0.332,2.406-0.498c1.364-0.268,2.732-0.528,4.07-0.871
	c0.802-0.207,1.585-0.465,2.378-0.694c1.312-0.379,2.626-0.748,3.913-1.188c0.751-0.258,1.484-0.562,2.226-0.848
	c1.295-0.488,2.585-0.975,3.844-1.527c0.69-0.299,1.364-0.644,2.046-0.967c1.276-0.604,2.554-1.213,3.794-1.886
	c0.618-0.332,1.211-0.688,1.82-1.041c1.267-0.729,2.534-1.465,3.761-2.261c0.535-0.35,1.051-0.719,1.581-1.077
	c1.263-0.862,2.507-1.741,3.72-2.668c0.446-0.347,0.879-0.709,1.323-1.063c1.248-1.006,2.478-2.026,3.662-3.097
	c0.366-0.334,0.721-0.681,1.084-1.017c1.222-1.151,2.415-2.328,3.568-3.549c0.286-0.305,0.567-0.619,0.847-0.934
	c1.186-1.297,2.337-2.625,3.435-3.998c0.218-0.277,0.429-0.543,0.639-0.82c1.134-1.455,2.218-2.94,3.251-4.475
	c0.15-0.229,0.299-0.449,0.45-0.674c1.062-1.609,2.064-3.248,3.011-4.938c0.102-0.178,0.197-0.353,0.301-0.528
	c0.964-1.759,1.874-3.556,2.712-5.39c0.055-0.121,0.115-0.244,0.169-0.369c0.858-1.896,1.646-3.84,2.357-5.814
	c0.023-0.068,0.055-0.141,0.083-0.211c0.297-0.852,0.526-1.727,0.805-2.584c0.392-1.225,0.815-2.43,1.146-3.678L307.778,300.896z"/>
<path fill="#1F5268" d="M308.61,256.096c-2.184-3.061-4.589-6.221-6.503-8.203c-5.798-5.996-13.129-11.043-21.2-14.592
	c-10.693-4.697-22.626-6.443-34.25-8.033c5.825,3.082,11.546,6.815,13.675,10.877c1.345,2.565,2.641,5.463,3.226,8.322
	c0.65,3.176,0.669,7.324,3.171,9.635c2.06,1.897,5.775,2.209,8.272,3.416c3.194,1.539,6.37,3.112,9.522,4.734
	c6.683,3.439,13.241,7.112,19.937,10.521c2.141,1.095,4.687,2.438,7.447,3.746C311.717,269.434,310.515,262.615,308.61,256.096z"/>
<g>
	<path fill="#4C4C4C" d="M306.983,250.871c0.176,0.469,0.313,0.957,0.479,1.436C307.297,251.828,307.16,251.34,306.983,250.871z"/>
	<path fill="#4C4C4C" d="M303.342,242.545c0.209,0.406,0.438,0.803,0.637,1.214C303.78,243.348,303.551,242.951,303.342,242.545z"/>
	<path fill="#4C4C4C" d="M283.747,217.446c-0.015,0-0.039,0-0.052,0c0.128,0.11,0.266,0.212,0.397,0.326
		C283.972,217.667,283.865,217.546,283.747,217.446z"/>
	<path fill="#4C4C4C" d="M294.691,228.9c0.405,0.52,0.788,1.053,1.185,1.578C295.479,229.953,295.102,229.42,294.691,228.9z"/>
	<path fill="#4C4C4C" d="M299.117,235.152c0.41,0.638,0.82,1.271,1.212,1.918C299.938,236.425,299.527,235.79,299.117,235.152z"/>
	<path fill="#B5B5B5" d="M308.82,256.383c-0.399-1.385-0.888-2.729-1.357-4.076c0.43,1.24,0.779,2.52,1.147,3.789
		C308.68,256.188,308.749,256.287,308.82,256.383z"/>
	<path fill="#B5B5B5" d="M295.876,230.479c1.133,1.521,2.213,3.08,3.241,4.674C298.09,233.555,297.009,232,295.876,230.479z"/>
	<path fill="#B5B5B5" d="M303.979,243.759c1.115,2.31,2.116,4.687,3.005,7.112C306.095,248.445,305.094,246.068,303.979,243.759z"/>
	<path fill="#B5B5B5" d="M300.329,237.07c1.074,1.779,2.079,3.604,3.013,5.475C302.408,240.674,301.403,238.85,300.329,237.07z"/>
	<path fill="#B5B5B5" d="M294.691,228.9c-3.176-4.043-6.724-7.765-10.599-11.128C287.972,221.133,291.516,224.865,294.691,228.9z"/>
</g>
<g>
	<path fill="#DDDDDD" d="M318.051,284.506c-1.074-0.453-2.177-0.867-3.269-1.273c0.711,0.26,1.286,0.781,1.806,1.395
		C317.05,284.68,317.528,284.67,318.051,284.506z"/>
	<path fill="#2CBFEB" d="M162.121,251.449c4.069,9.412,13.065,13.984,19.896,16.16c15.463,4.922,31.688,2.725,47.375,0.592
		c6.162-0.842,12.542-1.708,18.629-2.086c2.134-0.129,4.361-0.305,6.656-0.484c18.038-1.419,38.508-3.037,48.177,12.643
		c3.444,5.578,5.318,12.031,6.8,17.691l0.005,0.219l-0.019,0.604c-0.015,0.324-0.015,0.67,0,1.059
		c1.415-5.797,2.248-11.814,2.341-18.025c-1.596-3.4-2.729-7.637-3.983-9.434c-13.891-19.93-42.098-19.652-63.695-20.822
		c-13.062-0.711-26.142-0.295-39.208-0.189c-10.219,0.078-22.479,1.25-30.784-5.875c-4.683-4.02-6.028-9.438-5.799-15.09
		c-3.313,4.139-6.332,8.527-8.793,13.273C160.019,245.034,160.774,248.336,162.121,251.449z"/>
</g>
<path fill="#B6E5FF" d="M174.311,243.496c8.305,7.125,20.564,5.953,30.784,5.875c13.065-0.105,26.145-0.521,39.208,0.189
	c21.597,1.17,49.805,0.895,63.695,20.822c1.254,1.797,2.388,6.031,3.983,9.434c0.003-0.371,0.036-0.732,0.036-1.109
	c0-4.193-0.422-8.281-1.036-12.307c-2.411-3.918-5.619-7.133-8.775-10.213l-1.23-1.197c-17.98-17.68-40.832-16.785-62.931-15.938
	c-4.775,0.191-9.486,0.452-14.297,0.38c-15.44,0-26.35-3.033-33.341-9.266c-5.55-4.941-6.582-11.592-5.139-17.63
	c-6.351,4.431-11.923,9.841-16.754,15.87C168.283,234.059,169.628,239.477,174.311,243.496z"/>
<g>
	<path fill="#2CBFEB" d="M307.463,252.307c-0.166-0.479-0.303-0.967-0.479-1.436c-0.89-2.426-1.891-4.803-3.004-7.112
		c-0.199-0.411-0.429-0.808-0.638-1.214c-0.935-1.871-1.938-3.695-3.013-5.475c-0.392-0.646-0.802-1.28-1.212-1.918
		c-1.027-1.594-2.108-3.152-3.241-4.674c-0.397-0.525-0.78-1.06-1.185-1.578c-0.626-0.799-1.332-1.521-1.986-2.293
		c-1.341-0.213-2.594-0.471-3.619-0.69c-6.543-1.415-12.94-3.429-19.499-4.78c-7.54-1.554-15.273-1.718-22.938-2.031
		c-7.259-0.301-14.744-0.14-21.893-1.569c-4.222-0.847-8.675-3.004-11.5-6.144c-1.751-1.945-2.862-4.263-2.904-6.89
		c-0.133,0.448-0.211,0.912-0.231,1.384c-0.004,0.078-0.031,0.15-0.031,0.23c0,0.303,0.069,0.599,0.12,0.895
		c0.193,2.322,0.89,4.474,2.23,6.391c4.678,6.693,15.224,9.075,23.883,10.404c2.982,0.449,5.987,0.864,9.001,1.274
		c0.442,0.062,0.889,0.125,1.333,0.187c11.624,1.588,23.556,3.336,34.25,8.032c8.07,3.55,15.402,8.595,21.2,14.593
		c1.914,1.981,4.319,5.144,6.503,8.203C308.242,254.824,307.893,253.547,307.463,252.307z"/>
	<path fill="#B6E5FF" d="M284.092,217.772c-0.131-0.114-0.269-0.216-0.397-0.326c-14.085-12.076-32.342-19.414-52.353-19.414
		c-4.175,0-8.254,0.387-12.25,1.029c-1.167,0.188-2.337,0.372-3.49,0.602c-2.618,0.895-4.581,2.674-5.249,4.839
		c0.042,2.627,1.152,4.945,2.904,6.89c2.824,3.139,7.277,5.296,11.5,6.144c7.148,1.429,14.633,1.269,21.893,1.569
		c7.665,0.312,15.398,0.477,22.938,2.031c6.559,1.351,12.956,3.365,19.499,4.78c1.025,0.221,2.278,0.479,3.619,0.689
		C290.041,223.466,287.206,220.474,284.092,217.772z"/>
</g>
<g enable-background="new    ">
	<path d="M416.233,231.824c1.248,0.979,2.316,1.515,3.208,1.515c2.138,0,3.475-2.584,4.099-8.019h4.187
		c-0.533,6.682-0.713,15.324-0.713,31.005h-4.187c-2.228-13.542-8.375-27.709-24.858-27.709c-8.553,0-14.968,4.899-14.968,13.987
		c0,10.959,10.959,16.037,23.433,24.146c13.81,8.909,24.947,16.928,24.947,31.896c0,16.75-14.612,25.569-31.184,25.569
		c-5.257,0-10.068-0.802-14.434-2.584c-2.584-1.247-5.079-2.939-7.484-4.899c-0.535-0.534-1.158-0.714-1.693-0.714
		c-1.604,0-3.029,2.316-3.742,6.86h-4.188c0.535-7.84,0.713-17.997,0.713-36.439h4.188c2.405,20.402,7.127,34.123,25.392,34.123
		c7.306,0,16.216-4.364,16.216-17.373c0-10.603-8.731-16.395-20.67-23.877c-13.275-8.375-25.125-15.504-25.125-30.649
		c0-16.216,12.562-23.521,26.996-23.521C405.987,225.143,412.937,229.15,416.233,231.824z"/>
	<path d="M511.293,232.002c5.792,5.881,7.307,12.652,7.307,25.57v50.695c0,5.881,1.427,8.644,5.613,8.644
		c3.297,0,5.701-1.693,8.196-3.831l2.05,3.118c-5.079,3.831-8.91,6.682-16.661,6.682c-12.741,0-15.681-7.662-15.681-16.215
		c-7.842,12.919-19.334,16.215-28.066,16.215c-12.205,0-23.164-6.146-23.164-20.401c0-14.435,11.137-20.85,29.401-28.512
		c12.206-5.078,21.829-8.197,21.829-15.503v-11.315c0-15.323-7.484-18.354-16.93-18.354c-6.236,0-13.898,1.247-18.087,6.504
		c4.545,1.158,8.555,5.167,8.555,11.137c0,6.237-4.188,9.891-10.691,9.891c-6.237,0-9.89-4.723-9.89-11.314
		c0-5.347,3.475-9.533,8.553-13.009c5.168-3.386,13.898-6.86,25.57-6.86C499.443,225.143,507.105,227.814,511.293,232.002z
		 M502.117,265.948c-1.961,2.938-5.971,4.811-17.463,10.424c-8.021,3.831-17.73,9.088-17.73,23.165
		c0,10.959,6.236,16.037,14.611,16.037c7.307,0,14.434-3.831,20.582-13.811V265.948L502.117,265.948z"/>
	<path d="M610.541,230.934c5.436,3.652,8.553,8.553,8.553,14.076c0,6.594-4.188,10.246-9.621,10.246
		c-5.523,0-10.067-3.296-10.067-9.177c0-5.435,3.475-8.909,7.662-10.067c-2.406-4.365-9.444-7.662-16.395-7.662
		c-12.028,0-26.104,10.246-26.104,44.727c0,32.342,12.206,43.301,26.283,43.301c9.443,0,20.047-4.989,26.462-18.799l3.475,1.247
		c-3.652,11.85-14.077,25.393-33.59,25.393c-22.63,0-40.359-18.265-40.359-48.379c0-29.937,17.551-50.696,42.498-50.696
		C596.998,225.143,604.66,227.102,610.541,230.934z"/>
	<path d="M715.4,299.715c-4.009,12.206-16.037,24.502-34.123,24.502c-26.461,0-41.965-19.334-41.965-47.311
		c0-32.074,16.217-51.766,41.252-51.766c21.383,0,34.123,12.562,34.123,40.094h-57.021c-0.445,3.476-0.623,7.662-0.623,11.672
		c0,25.035,13.898,39.647,27.887,39.647c10.959,0,20.492-4.634,26.818-18.265L715.4,299.715z M657.4,261.76h39.735
		c0.623-17.818-5.078-33.144-17.284-33.144C668.982,228.616,659.359,238.773,657.4,261.76z"/>
</g>
</svg>
